<svg width="365" height="232" viewBox="0 0 365 232" fill="none" xmlns="http://www.w3.org/2000/svg">
<path d="M254.762 232H35.8622C31.1486 231.996 26.4819 230.996 22.1287 229.059C17.7755 227.121 13.8209 224.284 10.4908 220.708C7.16071 217.132 4.52027 212.888 2.72025 208.219C0.920238 203.549 -0.0041012 198.546 1.36783e-05 193.493V39.0622C0.0578931 28.905 3.86076 19.1844 10.5791 12.0209C17.2974 4.85748 26.3859 0.832404 35.8622 0.82373H83.3756C83.8823 0.82373 84.3683 1.03949 84.7266 1.42354C85.0849 1.8076 85.2862 2.32849 85.2862 2.87162C85.2862 3.41476 85.0849 3.93565 84.7266 4.3197C84.3683 4.70375 83.8823 4.91951 83.3756 4.91951H35.8622C27.3669 4.9284 19.222 8.54964 13.2149 14.9885C7.20783 21.4273 3.82943 30.1577 3.82114 39.2636V193.695C3.82943 202.801 7.20783 211.531 13.2149 217.97C19.222 224.409 27.3669 228.03 35.8622 228.039H254.762C258.985 228.034 263.165 227.136 267.062 225.396C270.96 223.656 274.499 221.108 277.476 217.899C280.453 214.689 282.809 210.881 284.41 206.693C286.011 202.505 286.824 198.019 286.803 193.493V136.219C286.799 135.948 286.845 135.678 286.94 135.425C287.034 135.173 287.174 134.943 287.352 134.75C287.529 134.556 287.741 134.402 287.975 134.297C288.209 134.192 288.46 134.138 288.714 134.138H362.787C363.256 134.202 363.686 134.447 363.999 134.827C364.311 135.207 364.483 135.696 364.483 136.203C364.483 136.709 364.311 137.198 363.999 137.578C363.686 137.958 363.256 138.203 362.787 138.267H290.593V193.493C290.593 203.688 286.821 213.468 280.104 220.686C273.387 227.905 264.274 231.974 254.762 232Z" fill="#E4E4FF"/>
</svg>
