<svg width="44" height="32" viewBox="0 0 44 32" fill="none" xmlns="http://www.w3.org/2000/svg">
<path d="M43.5765 0.624023H0.42334V31.3769H43.5765V0.624023Z" fill="#2A2FAF"/>
<path d="M0.42334 0.624023H22.2479V16.0005H0.42334V0.624023Z" fill="#2A2FAF"/>
<path fill-rule="evenodd" clip-rule="evenodd" d="M0.549786 0.624023L22.2479 15.5221V16.0005H21.5316L0.42334 1.5074V0.624023H0.549786Z" fill="#E92B2B"/>
<path fill-rule="evenodd" clip-rule="evenodd" d="M20.8252 16.0005L0.42334 1.99253V1.5074L21.5316 16.0005H20.8252ZM1.25634 0.624023L22.2479 15.0369V15.5221L0.549786 0.624023H1.25634Z" fill="#FBFBFB"/>
<path fill-rule="evenodd" clip-rule="evenodd" d="M0.42334 15.5221V16.0005H1.13962L22.2479 1.5074V0.624023H22.1215L0.42334 15.5221Z" fill="#E92B2B"/>
<path fill-rule="evenodd" clip-rule="evenodd" d="M22.2479 1.99253V1.5074L1.13962 16.0005H1.84616L22.2479 1.99253ZM0.42334 15.0369V15.5221L22.1215 0.624023H21.4149L0.42334 15.0369Z" fill="#FBFBFB"/>
<path fill-rule="evenodd" clip-rule="evenodd" d="M1.64786 0.624023L22.2479 15.0132V16.0004L0.42334 0.755996V0.624023H1.64786Z" fill="#FBFBFB"/>
<path fill-rule="evenodd" clip-rule="evenodd" d="M0.42334 15.0132V16.0004L22.2479 0.755996V0.624023H21.0234L0.42334 15.0132Z" fill="#FBFBFB"/>
<path fill-rule="evenodd" clip-rule="evenodd" d="M12.5048 0.624023H10.1665V7.09827H0.42334V9.52621H10.1665V16.0005H12.5048V9.52621H22.2479V7.09827H12.5048V0.624023Z" fill="#E92B2B"/>
<path fill-rule="evenodd" clip-rule="evenodd" d="M0.42334 6.69368H9.77674V0.624023H10.5562V7.09827V7.50296H10.1665H0.42334V6.69368ZM9.77674 16.0005V9.9308H0.42334V9.12152H10.1665H10.5562V9.52621V16.0005H9.77674ZM22.2479 9.9308H12.8945V16.0005H12.1151V9.52621V9.12152H12.5048H22.2479V9.9308ZM12.8945 0.624023V6.69368H22.2479V7.50296H12.5048H12.1151V7.09827V0.624023H12.8945Z" fill="#FBFBFB"/>
<path d="M10.5915 18.4805L11.4697 21.1329H14.3117L12.0125 22.7722L12.8907 25.4247L10.5915 23.7854L8.29241 25.4247L9.17065 22.7722L6.87146 21.1329H9.71337L10.5915 18.4805Z" fill="#FBFBFB"/>
<path d="M26.2162 11.5361L26.6845 12.8624H28.2002L26.9739 13.6821L27.4423 15.0082L26.2162 14.1886L24.9899 15.0082L25.4583 13.6821L24.2321 12.8624H25.7477L26.2162 11.5361Z" fill="#FBFBFB"/>
<path d="M32.4163 25.4248L32.8261 26.7511H34.1523L33.0793 27.5707L33.4891 28.8969L32.4163 28.0772L31.3433 28.8969L31.7531 27.5707L30.6802 26.7511H32.0064L32.4163 25.4248Z" fill="#FBFBFB"/>
<path d="M33.1603 5.08789L33.6286 6.41416H35.1443L33.918 7.23381L34.3864 8.55999L33.1603 7.74033L31.934 8.55999L32.4024 7.23381L31.1761 6.41416H32.6918L33.1603 5.08789Z" fill="#FBFBFB"/>
<path d="M38.6164 13.0244L39.0848 14.3507H40.6004L39.3742 15.1703L39.8425 16.4965L38.6164 15.6769L37.3902 16.4965L37.8585 15.1703L36.6323 14.3507H38.148L38.6164 13.0244Z" fill="#FBFBFB"/>
<path d="M34.1523 17.4883L34.5036 18.6251H35.6404L34.7207 19.3277L35.072 20.4644L34.1523 19.7618L33.2327 20.4644L33.584 19.3277L32.6643 18.6251H33.8011L34.1523 17.4883Z" fill="#FBFBFB"/>
</svg>
