<svg width="38" height="26" viewBox="0 0 38 26" fill="none" xmlns="http://www.w3.org/2000/svg">
<path d="M37.375 0.0292969H0.625V25.9705H37.375V0.0292969Z" fill="#E92B2B"/>
<path d="M27.2868 0.0292969H9.99268V25.9705H27.2868V0.0292969Z" fill="#FBFBFB"/>
<path fill-rule="evenodd" clip-rule="evenodd" d="M17.947 19.4852C17.8757 19.4852 17.818 19.4266 17.818 19.3541V17.1887C17.818 17.1164 17.7602 17.0576 17.689 17.0576H14.7948C14.6946 17.0576 14.6327 16.9465 14.6842 16.8591L15.8266 14.9228C15.8648 14.858 15.8414 14.774 15.7757 14.7391L12.2239 12.8559C12.1169 12.7991 12.1384 12.6374 12.2564 12.6115L14.0013 12.2293C14.0695 12.2144 14.1137 12.147 14.1009 12.0772L13.7365 10.082C13.7157 9.96781 13.8406 9.88449 13.9354 9.94938L16.9058 11.9827C17.0087 12.0531 17.1404 11.9499 17.0997 11.8309L15.9772 8.55245C15.9431 8.45307 16.0324 8.35541 16.1325 8.38286L17.573 8.77727C17.6301 8.79292 17.6904 8.76703 17.7192 8.71443L18.8875 6.58193C18.9367 6.49222 19.0636 6.49222 19.1128 6.58193L20.2811 8.71443C20.3099 8.76703 20.3701 8.79292 20.4273 8.77727L21.8677 8.38286C21.9677 8.35541 22.0571 8.45307 22.0231 8.55245L20.9006 11.8309C20.8598 11.9499 20.9916 12.0531 21.0944 11.9827L24.0649 9.94938C24.1597 9.88449 24.2845 9.96781 24.2636 10.082L23.8993 12.0772C23.8866 12.147 23.9308 12.2144 23.999 12.2293L25.7439 12.6115C25.8619 12.6374 25.8834 12.7991 25.7764 12.8559L22.2246 14.7391C22.1588 14.774 22.1355 14.858 22.1737 14.9228L23.316 16.8591C23.3676 16.9465 23.3057 17.0576 23.2054 17.0576H20.3112C20.24 17.0576 20.1823 17.1164 20.1823 17.1887V19.3541C20.1823 19.4266 20.1246 19.4852 20.0533 19.4852H17.947Z" fill="#E92B2B"/>
</svg>
