<svg width="100" height="90" viewBox="0 0 100 90" fill="none" xmlns="http://www.w3.org/2000/svg">
<circle cx="23.9652" cy="66.0365" r="23.7884" fill="#DDDDDD"/>
<path d="M79.5616 1.75259C79.7113 1.29193 80.363 1.29193 80.5127 1.75259L81.4362 4.59493C81.5032 4.80094 81.6951 4.94042 81.9118 4.94042H84.9004C85.3847 4.94042 85.5861 5.56023 85.1943 5.84493L82.7764 7.60159C82.6012 7.72891 82.5279 7.9546 82.5948 8.16061L83.5183 11.0029C83.668 11.4636 83.1408 11.8467 82.7489 11.562L80.3311 9.8053C80.1558 9.67798 79.9185 9.67798 79.7433 9.8053L77.3254 11.562C76.9336 11.8467 76.4063 11.4636 76.556 11.0029L77.4796 8.16061C77.5465 7.9546 77.4732 7.72891 77.2979 7.60159L74.8801 5.84493C74.4882 5.56023 74.6896 4.94042 75.174 4.94042H78.1626C78.3792 4.94042 78.5712 4.80094 78.6381 4.59493L79.5616 1.75259Z" fill="#141414"/>
<path d="M29.8747 77.1691C30.1469 77.4412 30.0224 77.906 29.6506 78.0056L19.341 80.768C18.9692 80.8676 18.629 80.5274 18.7286 80.1557L21.4911 69.8461C21.5907 69.4743 22.0554 69.3498 22.3276 69.6219L29.8747 77.1691Z" fill="#4EAF4E"/>
<circle cx="91.7814" cy="23.9914" r="7.25703" fill="#DADADA"/>
<path d="M31.4767 61.689C35.2904 68.2945 41.572 73.1145 48.9395 75.0887C56.3071 77.0628 64.1571 76.0293 70.7626 72.2156C77.3682 68.4019 82.1882 62.1203 84.1624 54.7528C86.1365 47.3852 85.103 39.5352 81.2893 32.9296L56.383 47.3093L31.4767 61.689Z" fill="#FFCC4A"/>
<path d="M56.1553 46.4798V17.4375" stroke="#141414" stroke-width="2" stroke-linecap="round" stroke-linejoin="round"/>
<path d="M81.2951 31.959L31.0156 61.0013" stroke="#141414" stroke-width="2" stroke-linecap="round" stroke-linejoin="round"/>
<path d="M27.5976 51.8044C27.2674 50.049 27.1054 48.2661 27.1136 46.48C27.1098 40.4737 28.9702 34.6142 32.4382 29.7102C35.9062 24.8062 40.8108 21.0995 46.4751 19.1016V40.8833L27.5976 51.8044Z" fill="#4EAF4E" stroke="#141414" stroke-width="2" stroke-linecap="round" stroke-linejoin="round"/>
<path d="M27.5976 51.8044C27.2674 50.049 27.1054 48.2661 27.1136 46.48C27.1098 40.4737 28.9702 34.6142 32.4382 29.7102C35.9062 24.8062 40.8108 21.0995 46.4751 19.1016V40.8833L27.5976 51.8044Z" stroke="#141414" stroke-width="2" stroke-linecap="round" stroke-linejoin="round"/>
<path d="M56.1554 17.4375C61.2444 17.4381 66.2439 18.7758 70.6531 21.3168C75.0623 23.8577 78.7264 27.5126 81.2785 31.9153C83.8305 36.3181 85.1809 41.3142 85.1944 46.4031C85.2078 51.492 83.8838 56.4952 81.3551 60.9114C78.8263 65.3275 75.1815 69.0017 70.7858 71.5659C66.3901 74.1301 61.3977 75.4942 56.3089 75.5217C51.22 75.5492 46.2132 74.239 41.7901 71.7224C37.3669 69.2058 33.6827 65.5711 31.1064 61.1825" stroke="#141414" stroke-width="2" stroke-linecap="round" stroke-linejoin="round"/>
</svg>
