<svg width="90" height="89" viewBox="0 0 90 89" fill="none" xmlns="http://www.w3.org/2000/svg">
<path d="M45.0777 86.7714C68.3917 86.7714 87.2914 67.821 87.2914 44.4445C87.2914 21.0681 68.3917 2.11768 45.0777 2.11768C21.7636 2.11768 2.86389 21.0681 2.86389 44.4445C2.86389 67.821 21.7636 86.7714 45.0777 86.7714Z" fill="#F48C06"/>
<path d="M45.0779 88.8226C36.3162 88.8292 27.7494 86.2302 20.4611 81.3543C13.1728 76.4783 7.49047 69.5446 4.13293 61.4301C0.775385 53.3155 -0.106535 44.3849 1.59872 35.7677C3.30397 27.1506 7.51979 19.2341 13.7129 13.0197C19.906 6.80528 27.7981 2.57218 36.3909 0.855837C44.9838 -0.860509 53.8913 0.0170031 61.9866 3.3774C70.082 6.73779 77.0015 12.4301 81.8699 19.7342C86.7384 27.0383 89.3369 35.6261 89.3369 44.4113C89.3281 56.1813 84.6633 67.4673 76.366 75.7931C68.0687 84.119 56.8165 88.8048 45.0779 88.8226ZM45.0779 4.13519C37.12 4.13519 29.3409 6.5013 22.7242 10.9343C16.1075 15.3673 10.9504 21.668 7.90509 29.0398C4.85975 36.4116 4.06296 44.5233 5.61545 52.3491C7.16795 60.175 11 67.3634 16.627 73.0056C22.2541 78.6477 29.4234 82.49 37.2283 84.0467C45.0332 85.6033 53.1232 84.8044 60.4753 81.7509C67.8274 78.6974 74.1113 73.5265 78.5325 66.8921C82.9536 60.2577 85.3134 52.4577 85.3134 44.4785C85.3134 39.1806 84.2727 33.9345 82.2506 29.0398C80.2286 24.1451 77.2649 19.6977 73.5287 15.9515C69.7924 12.2052 65.3569 9.23358 60.4753 7.20614C55.5937 5.1787 50.3617 4.13519 45.0779 4.13519Z" fill="white"/>
<path d="M67.6152 38.3407L56.6453 25.54C56.498 25.3701 56.3171 25.234 56.1145 25.1409C55.9118 25.0478 55.6921 24.9998 55.4699 25H33.5301C33.3079 24.9998 33.0882 25.0478 32.8855 25.1409C32.6829 25.234 32.502 25.3701 32.3547 25.54L21.3848 38.3407C21.13 38.6426 20.993 39.0298 21.0003 39.4284C21.0075 39.8269 21.1584 40.2087 21.424 40.5008L43.3638 64.502C43.5102 64.6593 43.6865 64.7846 43.8818 64.8702C44.0771 64.9559 44.2874 65 44.5 65C44.7126 65 44.9229 64.9559 45.1182 64.8702C45.3135 64.7846 45.4898 64.6593 45.6362 64.502L67.576 40.5008C67.8416 40.2087 67.9925 39.8269 67.9997 39.4284C68.007 39.0298 67.87 38.6426 67.6152 38.3407ZM62.9921 37.8006H54.8822L47.6734 28.2002H54.7647L62.9921 37.8006ZM33.8239 41.0008L39.8182 55.9215L26.1646 41.0008H33.8239ZM55.1761 41.0008H62.8354L49.1818 55.9215L55.1761 41.0008ZM34.2353 28.2002H41.3266L34.1178 37.8006H26.0079L34.2353 28.2002Z" fill="white"/>
</svg>
