<svg width="89" height="89" viewBox="0 0 89 89" fill="none" xmlns="http://www.w3.org/2000/svg">
<path d="M44.4098 86.7714C67.7238 86.7714 86.6236 67.821 86.6236 44.4446C86.6236 21.0681 67.7238 2.11768 44.4098 2.11768C21.0958 2.11768 2.19604 21.0681 2.19604 44.4446C2.19604 67.821 21.0958 86.7714 44.4098 86.7714Z" fill="#4356E6"/>
<path d="M44.4099 88.8226C35.6482 88.8292 27.0814 86.2302 19.7931 81.3543C12.5048 76.4783 6.8225 69.5446 3.46496 61.4301C0.107416 53.3155 -0.774504 44.3849 0.930748 35.7677C2.636 27.1506 6.85182 19.2341 13.0449 13.0197C19.238 6.80528 27.1301 2.57218 35.723 0.855837C44.3158 -0.860509 53.2233 0.0170031 61.3186 3.3774C69.414 6.73779 76.3336 12.4301 81.202 19.7342C86.0704 27.0383 88.669 35.6261 88.669 44.4113C88.6601 56.1813 83.9953 67.4673 75.698 75.7931C67.4007 84.119 56.1485 88.8048 44.4099 88.8226ZM44.4099 4.13519C36.4521 4.13519 28.6729 6.5013 22.0562 10.9343C15.4395 15.3673 10.2824 21.668 7.23712 29.0398C4.19179 36.4116 3.39499 44.5233 4.94748 52.3491C6.49998 60.175 10.332 67.3634 15.9591 73.0056C21.5861 78.6477 28.7554 82.49 36.5603 84.0467C44.3653 85.6033 52.4553 84.8044 59.8074 81.7509C67.1594 78.6974 73.4434 73.5265 77.8645 66.8921C82.2857 60.2577 84.6454 52.4577 84.6454 44.4785C84.6454 39.1806 83.6047 33.9345 81.5827 29.0398C79.5606 24.1451 76.5969 19.6977 72.8607 15.9515C69.1245 12.2052 64.689 9.23358 59.8074 7.20614C54.9258 5.1787 49.6937 4.13519 44.4099 4.13519Z" fill="#4356E6"/>
<path d="M61.5992 33.4514C61.3973 33.5445 61.2162 33.6757 61.0663 33.8374C60.9165 33.9992 60.8009 34.1883 60.7262 34.3939C60.6514 34.5996 60.6191 34.8176 60.631 35.0355C60.6429 35.2534 60.6987 35.4668 60.7954 35.6635C62.7738 39.7117 63.152 44.3317 61.8573 48.6358C60.5625 52.94 57.6862 56.6248 53.7807 58.9824C49.8753 61.34 45.2163 62.2042 40.6986 61.4089C36.181 60.6136 32.1233 58.2149 29.3051 54.6736C26.4869 51.1323 25.1069 46.6982 25.4302 42.223C25.7535 37.7479 27.7574 33.5473 31.0568 30.4282C34.3562 27.3091 38.7185 25.4915 43.3057 25.3245C47.8929 25.1575 52.3814 26.6529 55.9091 29.5235L51.0862 34.237C48.6869 32.5081 45.7089 31.7268 42.7462 32.0491C39.7835 32.3714 37.0541 33.7735 35.1025 35.9757C33.1509 38.1779 32.1206 41.0183 32.2171 43.9302C32.3137 46.8421 33.53 49.6113 35.6235 51.6854C37.321 53.3439 39.4941 54.4592 41.8547 54.8837C44.2154 55.3082 46.6523 55.0218 48.8427 54.0624C51.0331 53.103 52.8736 51.5159 54.1204 49.5113C55.3672 47.5067 55.9614 45.1792 55.8245 42.8372C55.8137 42.6208 55.759 42.4086 55.6635 42.2131C55.568 42.0175 55.4337 41.8425 55.2683 41.6982C55.103 41.5539 54.9099 41.4432 54.7003 41.3725C54.4907 41.3019 54.2689 41.2727 54.0476 41.2867C53.8253 41.2972 53.6073 41.3506 53.4061 41.4437C53.2049 41.5367 53.0245 41.6677 52.8752 41.829C52.7259 41.9903 52.6105 42.1788 52.5359 42.3837C52.4612 42.5887 52.4286 42.806 52.44 43.0232C52.5319 44.5559 52.1853 46.0833 51.4392 47.4344C50.693 48.7854 49.5768 49.9068 48.2154 50.6729C46.8541 51.439 45.3014 51.8196 43.7312 51.7721C42.161 51.7245 40.6354 51.2507 39.3252 50.4036L44.4019 45.442L52.3766 37.6481L65.5125 24.8307C65.7824 24.5093 65.9203 24.1014 65.8994 23.6862C65.8785 23.2709 65.7004 22.8782 65.3996 22.5842C65.0989 22.2903 64.697 22.1162 64.2721 22.0958C63.8473 22.0754 63.4299 22.2102 63.1011 22.4739L58.3205 27.1667C54.1107 23.6449 48.696 21.8055 43.1587 22.0163C37.6213 22.2271 32.3694 24.4725 28.4526 28.3038C26.4073 30.2972 24.7845 32.6655 23.6772 35.2729C22.57 37.8803 22 40.6756 22 43.4987C22 46.3218 22.57 49.1171 23.6772 51.7245C24.7845 54.3319 26.4073 56.7002 28.4526 58.6936C30.4923 60.6926 32.9155 62.2786 35.5834 63.3608C38.2513 64.443 41.1115 65 44 65C46.8886 65 49.7487 64.443 52.4166 63.3608C55.0845 62.2786 57.5077 60.6926 59.5474 58.6936C62.7648 55.5529 64.9073 51.5149 65.68 47.1353C66.4528 42.7556 65.8178 38.2495 63.8626 34.237C63.7674 34.0397 63.6332 33.8627 63.4677 33.7162C63.3021 33.5698 63.1086 33.4568 62.8982 33.3838C62.6878 33.3107 62.4648 33.2791 62.2418 33.2907C62.0189 33.3024 61.8005 33.357 61.5992 33.4514Z" fill="white"/>
</svg>
