<svg width="89" height="89" viewBox="0 0 89 89" fill="none" xmlns="http://www.w3.org/2000/svg">
<path d="M44.5949 86.7714C67.9089 86.7714 86.8086 67.821 86.8086 44.4446C86.8086 21.0681 67.9089 2.11768 44.5949 2.11768C21.2809 2.11768 2.3811 21.0681 2.3811 44.4446C2.3811 67.821 21.2809 86.7714 44.5949 86.7714Z" fill="#D0BE1C"/>
<path d="M68.8617 42.84C68.8005 42.675 67.0647 38.7975 63.2257 34.8994C58.1001 29.7431 51.6268 27 44.5 27C37.3732 27 30.8999 29.7431 25.7743 34.8994C21.9353 38.7975 20.1995 42.675 20.1383 42.84C20.0471 43.0478 20 43.2727 20 43.5C20 43.7273 20.0471 43.9522 20.1383 44.16C20.1995 44.325 21.9353 48.2025 25.7743 52.1006C30.8999 57.2569 37.3732 60 44.5 60C51.6268 60 58.1001 57.2569 63.2257 52.1006C67.0647 48.2025 68.8005 44.325 68.8617 44.16C68.9529 43.9522 69 43.7273 69 43.5C69 43.2727 68.9529 43.0478 68.8617 42.84ZM44.5 36.075C45.954 36.075 47.3753 36.5105 48.5842 37.3263C49.7932 38.1422 50.7354 39.3018 51.2918 40.6586C51.8482 42.0153 51.9938 43.5082 51.7101 44.9485C51.4265 46.3889 50.7263 47.7119 49.6982 48.7503C48.6701 49.7887 47.3602 50.4958 45.9342 50.7823C44.5082 51.0688 43.03 50.9218 41.6867 50.3598C40.3434 49.7978 39.1953 48.8461 38.3875 47.6251C37.5797 46.4041 37.1486 44.9685 37.1486 43.5C37.1486 41.5308 37.9231 39.6422 39.3018 38.2497C40.6804 36.8573 42.5503 36.075 44.5 36.075Z" fill="white"/>
</svg>
