<svg width="407" height="370" viewBox="0 0 407 370" fill="none" xmlns="http://www.w3.org/2000/svg">
<circle cx="5" cy="5" r="5" fill="#DCE2EE"/>
<circle cx="5" cy="65" r="5" fill="#DCE2EE"/>
<circle cx="5" cy="125" r="5" fill="#DCE2EE"/>
<circle cx="5" cy="185" r="5" fill="#DCE2EE"/>
<circle cx="5" cy="245" r="5" fill="#DCE2EE"/>
<circle cx="5" cy="305" r="5" fill="#DCE2EE"/>
<circle cx="5" cy="365" r="5" fill="#DCE2EE"/>
<circle cx="65" cy="5" r="5" fill="#DCE2EE"/>
<circle cx="65" cy="65" r="5" fill="#DCE2EE"/>
<circle cx="65" cy="125" r="5" fill="#DCE2EE"/>
<circle cx="65" cy="185" r="5" fill="#DCE2EE"/>
<circle cx="65" cy="245" r="5" fill="#DCE2EE"/>
<circle cx="65" cy="305" r="5" fill="#DCE2EE"/>
<circle cx="65" cy="365" r="5" fill="#DCE2EE"/>
<circle cx="125" cy="5" r="5" fill="#DCE2EE"/>
<circle cx="125" cy="65" r="5" fill="#DCE2EE"/>
<circle cx="125" cy="125" r="5" fill="#DCE2EE"/>
<circle cx="125" cy="185" r="5" fill="#DCE2EE"/>
<circle cx="125" cy="245" r="5" fill="#DCE2EE"/>
<circle cx="125" cy="305" r="5" fill="#DCE2EE"/>
<circle cx="125" cy="365" r="5" fill="#DCE2EE"/>
<circle cx="185" cy="5" r="5" fill="#DCE2EE"/>
<circle cx="185" cy="65" r="5" fill="#DCE2EE"/>
<circle cx="185" cy="125" r="5" fill="#DCE2EE"/>
<circle cx="185" cy="185" r="5" fill="#DCE2EE"/>
<circle cx="185" cy="245" r="5" fill="#DCE2EE"/>
<circle cx="185" cy="305" r="5" fill="#DCE2EE"/>
<circle cx="185" cy="365" r="5" fill="#DCE2EE"/>
<circle cx="245" cy="5" r="5" fill="#DCE2EE"/>
<circle cx="245" cy="65" r="5" fill="#DCE2EE"/>
<circle cx="245" cy="125" r="5" fill="#DCE2EE"/>
<circle cx="245" cy="185" r="5" fill="#DCE2EE"/>
<circle cx="245" cy="245" r="5" fill="#DCE2EE"/>
<circle cx="245" cy="305" r="5" fill="#DCE2EE"/>
<circle cx="245" cy="365" r="5" fill="#DCE2EE"/>
<circle cx="305" cy="5" r="5" fill="#DCE2EE"/>
<circle cx="305" cy="65" r="5" fill="#DCE2EE"/>
<circle cx="305" cy="125" r="5" fill="#DCE2EE"/>
<circle cx="305" cy="185" r="5" fill="#DCE2EE"/>
<circle cx="305" cy="245" r="5" fill="#DCE2EE"/>
<circle cx="305" cy="305" r="5" fill="#DCE2EE"/>
<circle cx="305" cy="365" r="5" fill="#DCE2EE"/>
<circle cx="365" cy="5" r="5" fill="#DCE2EE"/>
<circle cx="365" cy="65" r="5" fill="#DCE2EE"/>
<circle cx="365" cy="125" r="5" fill="#DCE2EE"/>
<circle cx="365" cy="185" r="5" fill="#DCE2EE"/>
<circle cx="365" cy="245" r="5" fill="#DCE2EE"/>
<circle cx="365" cy="305" r="5" fill="#DCE2EE"/>
<circle cx="365" cy="365" r="5" fill="#DCE2EE"/>
</svg>
