<svg width="41" height="28" viewBox="0 0 41 28" fill="none" xmlns="http://www.w3.org/2000/svg">
<mask id="mask0_2265_5299" style="mask-type:luminance" maskUnits="userSpaceOnUse" x="0" y="0" width="41" height="28">
<path d="M0.172363 3.49647C0.172363 2.01779 1.45659 0.81543 3.02291 0.81543H37.4299C39.0036 0.81543 40.2804 2.02526 40.2804 3.489V25.0195C40.2804 26.4982 38.9888 27.693 37.4299 27.693H3.02291C1.44917 27.7005 0.172363 26.4907 0.172363 25.0269V3.49647Z" fill="white"/>
</mask>
<g mask="url(#mask0_2265_5299)">
<path d="M40.2878 0.823242H0.172363V9.78494H40.2878V0.823242Z" fill="#F89938"/>
</g>
<mask id="mask1_2265_5299" style="mask-type:luminance" maskUnits="userSpaceOnUse" x="0" y="0" width="41" height="28">
<path d="M0.172363 3.49647C0.172363 2.01779 1.45659 0.81543 3.02291 0.81543H37.4299C39.0036 0.81543 40.2804 2.02526 40.2804 3.489V25.0195C40.2804 26.4982 38.9888 27.693 37.4299 27.693H3.02291C1.44917 27.7005 0.172363 26.4907 0.172363 25.0269V3.49647Z" fill="white"/>
</mask>
<g mask="url(#mask1_2265_5299)">
<path d="M40.2878 9.77734H0.172363V18.739H40.2878V9.77734Z" fill="white"/>
</g>
<mask id="mask2_2265_5299" style="mask-type:luminance" maskUnits="userSpaceOnUse" x="0" y="0" width="41" height="28">
<path d="M0.172363 3.49647C0.172363 2.01779 1.45659 0.81543 3.02291 0.81543H37.4299C39.0036 0.81543 40.2804 2.02526 40.2804 3.489V25.0195C40.2804 26.4982 38.9888 27.693 37.4299 27.693H3.02291C1.44917 27.7005 0.172363 26.4907 0.172363 25.0269V3.49647Z" fill="white"/>
</mask>
<g mask="url(#mask2_2265_5299)">
<path d="M40.2878 18.7393H0.172363V27.701H40.2878V18.7393Z" fill="#1C8943"/>
</g>
<mask id="mask3_2265_5299" style="mask-type:luminance" maskUnits="userSpaceOnUse" x="0" y="0" width="41" height="28">
<path d="M0.172363 3.49647C0.172363 2.01779 1.45659 0.81543 3.02291 0.81543H37.4299C39.0036 0.81543 40.2804 2.02526 40.2804 3.489V25.0195C40.2804 26.4982 38.9888 27.693 37.4299 27.693H3.02291C1.44917 27.7005 0.172363 26.4907 0.172363 25.0269V3.49647Z" fill="white"/>
</mask>
<g mask="url(#mask3_2265_5299)">
<path d="M20.2302 18.4772C22.522 18.4772 24.3798 16.6082 24.3798 14.3026C24.3798 11.997 22.522 10.1279 20.2302 10.1279C17.9384 10.1279 16.0806 11.997 16.0806 14.3026C16.0806 16.6082 17.9384 18.4772 20.2302 18.4772Z" fill="#2C479E"/>
<path d="M22.999 16.7296C22.9099 16.64 22.9099 16.4981 22.999 16.4085C23.0806 16.3263 23.2068 16.3188 23.2959 16.3861C23.3924 16.2442 23.4741 16.0948 23.5557 15.938C23.5483 15.938 23.5409 15.9305 23.5335 15.9305C23.4221 15.8708 23.385 15.7289 23.4518 15.6168C23.5112 15.5198 23.63 15.4749 23.7339 15.5198C23.7859 15.3629 23.8304 15.1986 23.8675 15.0269C23.7562 15.0119 23.6745 14.9148 23.6745 14.8028C23.6745 14.6759 23.7784 14.5713 23.9046 14.5713C23.9121 14.5713 23.9195 14.5713 23.9343 14.5713C23.9417 14.4817 23.9417 14.3921 23.9417 14.3025C23.9417 14.2203 23.9417 14.1382 23.9343 14.056C23.9269 14.056 23.9195 14.056 23.9046 14.056C23.7784 14.056 23.6745 13.9515 23.6745 13.8245C23.6745 13.705 23.7636 13.6154 23.8749 13.6005C23.8452 13.4287 23.8007 13.2644 23.7413 13.1001C23.7339 13.1076 23.7191 13.1076 23.7116 13.1076C23.5929 13.1374 23.4667 13.0702 23.4295 12.9433C23.3998 12.8312 23.4592 12.7118 23.5632 12.6744C23.4889 12.5176 23.3998 12.3682 23.3108 12.2263C23.2217 12.301 23.0881 12.2935 23.0064 12.2114C22.9173 12.1218 22.9173 11.9799 23.0064 11.8903C23.0138 11.8828 23.0213 11.8753 23.0287 11.8679C22.9173 11.7409 22.7986 11.6139 22.6649 11.5019C22.6575 11.5094 22.6501 11.5169 22.6427 11.5318C22.5536 11.6214 22.4125 11.6214 22.3235 11.5318C22.2418 11.4496 22.2344 11.3152 22.3086 11.2256C22.1676 11.1285 22.0191 11.0389 21.8632 10.9642C21.8558 10.9792 21.8558 10.9866 21.8484 11.0016C21.789 11.1136 21.648 11.1509 21.5366 11.0837C21.4327 11.024 21.3956 10.897 21.4401 10.7925C21.2768 10.7402 21.1135 10.6954 20.9427 10.658C20.9353 10.7775 20.8388 10.8671 20.7126 10.8671C20.5864 10.8671 20.4825 10.7626 20.4825 10.6356C20.4825 10.6207 20.4825 10.6058 20.4825 10.5983C20.3934 10.5908 20.3118 10.5908 20.2227 10.5908C20.1336 10.5908 20.0519 10.5908 19.9703 10.5983C19.9703 10.6132 19.9777 10.6282 19.9777 10.6356C19.9777 10.7626 19.8738 10.8671 19.7476 10.8671C19.6288 10.8671 19.5323 10.7775 19.5175 10.658C19.3467 10.6879 19.176 10.7402 19.0127 10.7925C19.0201 10.8074 19.0201 10.8149 19.0275 10.8298C19.0572 10.9493 18.9904 11.0762 18.8642 11.1136C18.7454 11.1435 18.6341 11.0837 18.5896 10.9717C18.4337 11.0464 18.2926 11.136 18.1516 11.2256C18.2258 11.3152 18.2258 11.4496 18.1367 11.5318C18.0477 11.6214 17.9066 11.6214 17.8175 11.5318C17.8101 11.5243 17.8027 11.5094 17.7953 11.5019C17.6691 11.6139 17.5429 11.7409 17.4315 11.8679C17.4389 11.8753 17.4538 11.8828 17.4612 11.8903C17.5503 11.9799 17.5503 12.1218 17.4612 12.2114C17.3796 12.2935 17.2459 12.301 17.1569 12.2263C17.0604 12.3682 16.9713 12.5176 16.897 12.6744C16.9119 12.6819 16.9193 12.6819 16.9342 12.6894C17.0455 12.7491 17.0826 12.891 17.0158 13.003C16.9564 13.1076 16.8302 13.1449 16.7263 13.1001C16.6743 13.2644 16.6298 13.4287 16.5927 13.593C16.704 13.6079 16.8005 13.705 16.8005 13.817C16.8005 13.944 16.6966 14.0485 16.5704 14.0485C16.5556 14.0485 16.5481 14.0485 16.5333 14.0485C16.5259 14.1307 16.5259 14.2128 16.5259 14.295C16.5259 14.3846 16.5259 14.4742 16.5333 14.5638C16.5407 14.5638 16.5556 14.5638 16.5704 14.5638C16.6966 14.5638 16.8005 14.6684 16.8005 14.7953C16.8005 14.9148 16.7115 15.0119 16.6001 15.0194C16.6372 15.1912 16.6818 15.3555 16.7337 15.5198C16.7412 15.5123 16.756 15.5123 16.7634 15.5123C16.8822 15.4824 17.0084 15.5496 17.0455 15.6766C17.0752 15.7886 17.0158 15.9081 16.9119 15.9454C16.9861 16.1023 17.0752 16.2442 17.1717 16.3861C17.2608 16.3188 17.387 16.3263 17.4686 16.4085C17.5577 16.4981 17.5577 16.64 17.4686 16.7296C17.4612 16.7371 17.4538 16.7445 17.4464 16.7445C17.5577 16.8715 17.6765 16.9984 17.8101 17.1105C17.8175 17.103 17.825 17.0955 17.825 17.088C17.914 16.9984 18.0551 16.9984 18.1442 17.088C18.2258 17.1702 18.2332 17.2972 18.1664 17.3868C18.3075 17.4839 18.4559 17.566 18.6118 17.6407C18.6118 17.6332 18.6192 17.6258 18.6267 17.6183C18.6861 17.5063 18.8271 17.4689 18.9384 17.5361C19.035 17.5959 19.0795 17.7154 19.035 17.8199C19.1908 17.8722 19.3616 17.917 19.5249 17.9543C19.5397 17.8423 19.6362 17.7602 19.7476 17.7602C19.8738 17.7602 19.9777 17.8647 19.9777 17.9917C19.9777 17.9992 19.9777 18.0066 19.9777 18.0141C20.0594 18.0216 20.1484 18.0216 20.2301 18.0216C20.3192 18.0216 20.4008 18.0216 20.4899 18.0141C20.4899 18.0066 20.4899 17.9992 20.4899 17.9917C20.4899 17.8647 20.5938 17.7602 20.72 17.7602C20.8314 17.7602 20.9279 17.8423 20.9427 17.9543C21.1135 17.9245 21.2768 17.8797 21.4401 17.8199C21.4401 17.8125 21.4327 17.805 21.4327 17.7975C21.403 17.678 21.4698 17.5511 21.596 17.5137C21.7073 17.4839 21.8187 17.5361 21.8632 17.6407C22.0117 17.566 22.1602 17.4839 22.3012 17.3868C22.2344 17.2972 22.2492 17.1702 22.3235 17.0955C22.4125 17.0059 22.5536 17.0059 22.6427 17.0955C22.6501 17.103 22.6501 17.103 22.6575 17.1105C22.7837 16.9984 22.9099 16.8789 23.0213 16.7445C23.0064 16.7371 22.999 16.7371 22.999 16.7296Z" fill="white"/>
<path d="M20.2303 10.583L20.0818 12.7189C20.0818 12.7189 20.2303 13.503 20.2303 14.2946C20.2303 13.4956 20.3713 12.7189 20.3713 12.7189L20.2303 10.583Z" fill="#2C479E"/>
<path d="M20.2303 18.0134L20.0818 15.8775C20.0818 15.8775 20.2303 15.0934 20.2303 14.3018C20.2303 15.1008 20.3713 15.8775 20.3713 15.8775L20.2303 18.0134Z" fill="#2C479E"/>
<path d="M23.9196 14.3017L21.7965 14.1523C21.7965 14.1523 21.0171 14.3017 20.2302 14.3017C21.0245 14.3017 21.7965 14.4436 21.7965 14.4436L23.9196 14.3017Z" fill="#2C479E"/>
<path d="M16.5334 14.3017L18.6565 14.1523C18.6565 14.1523 19.436 14.3017 20.2228 14.3017C19.4285 14.3017 18.6565 14.4436 18.6565 14.4436L16.5334 14.3017Z" fill="#2C479E"/>
<path d="M22.8435 11.6738L21.24 13.0778C21.24 13.0778 20.7946 13.735 20.2305 14.2951C20.7872 13.735 21.4405 13.2795 21.4405 13.2795L22.8435 11.6738Z" fill="#2C479E"/>
<path d="M17.6174 16.9315L19.013 15.3184C19.013 15.3184 19.6663 14.8703 20.223 14.3027C19.6663 14.8628 19.2134 15.52 19.2134 15.52L17.6174 16.9315Z" fill="#2C479E"/>
<path d="M22.8358 16.9315L21.4402 15.3184C21.4402 15.3184 20.787 14.8703 20.2302 14.3027C20.787 14.8628 21.2398 15.52 21.2398 15.52L22.8358 16.9315Z" fill="#2C479E"/>
<path d="M17.6099 11.6738L19.2133 13.0778C19.2133 13.0778 19.6587 13.735 20.2229 14.2951C19.6661 13.735 19.0129 13.2795 19.0129 13.2795L17.6099 11.6738Z" fill="#2C479E"/>
<path d="M21.2027 10.7178L20.5049 12.7416C20.5049 12.7416 20.4381 13.5332 20.2302 14.3025C20.4381 13.5332 20.7795 12.8163 20.7795 12.8163L21.2027 10.7178Z" fill="#2C479E"/>
<path d="M19.2578 17.8874L19.6735 15.7889C19.6735 15.7889 20.0224 15.0719 20.2303 14.3027C20.0224 15.0719 19.9556 15.8636 19.9556 15.8636L19.2578 17.8874Z" fill="#2C479E"/>
<path d="M23.7934 15.2811L21.7817 14.5791C21.7817 14.5791 20.9948 14.5118 20.2302 14.3027C20.9948 14.5118 21.7075 14.8554 21.7075 14.8554L23.7934 15.2811Z" fill="#2C479E"/>
<path d="M16.6597 13.3242L18.7456 13.7424C18.7456 13.7424 19.4582 14.0934 20.2228 14.3025C19.4582 14.0934 18.6714 14.0262 18.6714 14.0262L16.6597 13.3242Z" fill="#2C479E"/>
<path d="M23.4371 12.458L21.5219 13.3915C21.5219 13.3915 20.9206 13.9068 20.2302 14.3026C20.9206 13.9068 21.6629 13.6454 21.6629 13.6454L23.4371 12.458Z" fill="#2C479E"/>
<path d="M17.0234 16.1473L18.7976 14.9599C18.7976 14.9599 19.5474 14.6985 20.2303 14.3027C19.5399 14.6985 18.9386 15.2064 18.9386 15.2064L17.0234 16.1473Z" fill="#2C479E"/>
<path d="M22.0565 17.5289L21.1285 15.6022C21.1285 15.6022 20.6163 14.9973 20.2229 14.3027C20.6163 14.9973 20.8761 15.7441 20.8761 15.7441L22.0565 17.5289Z" fill="#2C479E"/>
<path d="M18.3894 11.0762L19.5697 12.861C19.5697 12.861 19.8295 13.6153 20.223 14.3024C19.8295 13.6079 19.3247 13.0029 19.3247 13.0029L18.3894 11.0762Z" fill="#2C479E"/>
<path d="M22.0786 11.083L20.8909 12.8604C20.8909 12.8604 20.6311 13.6147 20.2302 14.3018C20.6237 13.6147 21.1359 13.0023 21.1359 13.0023L22.0786 11.083Z" fill="#2C479E"/>
<path d="M18.3818 17.5208L19.3172 15.6015C19.3172 15.6015 19.8294 14.9966 20.2302 14.3096C19.8368 14.9966 19.5696 15.7434 19.5696 15.7434L18.3818 17.5208Z" fill="#2C479E"/>
<path d="M23.4221 16.1613L21.6554 14.9664C21.6554 14.9664 20.9056 14.705 20.2227 14.3018C20.9056 14.6976 21.5143 15.2129 21.5143 15.2129L23.4221 16.1613Z" fill="#2C479E"/>
<path d="M17.0308 12.4424L18.9385 13.3834C18.9385 13.3834 19.5398 13.8987 20.2228 14.3019C19.5398 13.9061 18.7975 13.6373 18.7975 13.6373L17.0308 12.4424Z" fill="#2C479E"/>
<path d="M23.7934 13.3467L21.7075 13.7574C21.7075 13.7574 20.9948 14.101 20.2302 14.3101C20.9948 14.101 21.7817 14.0412 21.7817 14.0412L23.7934 13.3467Z" fill="#2C479E"/>
<path d="M16.6597 15.2661L18.6714 14.5716C18.6714 14.5716 19.4582 14.5118 20.2228 14.3027C19.4582 14.5118 18.7456 14.8479 18.7456 14.8479L16.6597 15.2661Z" fill="#2C479E"/>
<path d="M21.1805 17.8942L20.7722 15.7957C20.7722 15.7957 20.4308 15.0788 20.2229 14.3096C20.4308 15.0788 20.4901 15.8704 20.4901 15.8704L21.1805 17.8942Z" fill="#2C479E"/>
<path d="M19.2727 10.71L19.9631 12.7338C19.9631 12.7338 20.0225 13.5254 20.2303 14.2946C20.0225 13.5254 19.6884 12.8085 19.6884 12.8085L19.2727 10.71Z" fill="#2C479E"/>
</g>
</svg>
