<svg width="90" height="89" viewBox="0 0 90 89" fill="none" xmlns="http://www.w3.org/2000/svg">
<path d="M44.9782 86.7714C68.2922 86.7714 87.1919 67.821 87.1919 44.4445C87.1919 21.0681 68.2922 2.11768 44.9782 2.11768C21.6642 2.11768 2.7644 21.0681 2.7644 44.4445C2.7644 67.821 21.6642 86.7714 44.9782 86.7714Z" fill="#EB3B3B"/>
<path d="M44.9783 88.8226C36.2166 88.8292 27.6498 86.2302 20.3615 81.3543C13.0732 76.4783 7.39086 69.5446 4.03332 61.4301C0.675776 53.3155 -0.206145 44.3849 1.49911 35.7677C3.20436 27.1506 7.42018 19.2341 13.6133 13.0197C19.8064 6.80528 27.6985 2.57218 36.2913 0.855837C44.8842 -0.860509 53.7916 0.0170031 61.887 3.3774C69.9824 6.73779 76.9019 12.4301 81.7703 19.7342C86.6387 27.0383 89.2373 35.6261 89.2373 44.4113C89.2284 56.1813 84.5637 67.4673 76.2664 75.7931C67.9691 84.119 56.7168 88.8048 44.9783 88.8226ZM44.9783 4.13519C37.0204 4.13519 29.2413 6.5013 22.6246 10.9343C16.0079 15.3673 10.8508 21.668 7.80548 29.0398C4.76014 36.4116 3.96335 44.5233 5.51584 52.3491C7.06834 60.175 10.9004 67.3634 16.5274 73.0056C22.1545 78.6477 29.3238 82.49 37.1287 84.0467C44.9336 85.6033 53.0236 84.8044 60.3757 81.7509C67.7278 78.6974 74.0117 73.5265 78.4329 66.8921C82.854 60.2577 85.2138 52.4577 85.2138 44.4785C85.2138 39.1806 84.173 33.9345 82.151 29.0398C80.129 24.1451 77.1653 19.6977 73.4291 15.9515C69.6928 12.2052 65.2573 9.23358 60.3757 7.20614C55.4941 5.1787 50.2621 4.13519 44.9783 4.13519Z" fill="white"/>
<path d="M53.2253 57.3815H37.3886M53.2253 57.3815V60.021C53.2253 62.4806 53.2253 63.7105 52.8235 64.6806C52.2877 65.974 51.26 67.0017 49.9666 67.5375C48.9964 67.9393 47.7666 67.9393 45.307 67.9393V67.9393C42.8473 67.9393 41.6175 67.9393 40.6474 67.5375C39.3539 67.0017 38.3262 65.974 37.7904 64.6806C37.3886 63.7105 37.3886 62.4806 37.3886 60.021V57.3815M53.2253 57.3815V54.7228C53.2253 53.8773 53.4911 53.0531 53.9852 52.367L58.4735 46.1332C66.2005 35.4013 58.5313 20.4292 45.307 20.4292V20.4292C32.0826 20.4292 24.4134 35.4013 32.1405 46.1332L36.6288 52.367C37.1228 53.0532 37.3886 53.8773 37.3886 54.7228V57.3815M41.3478 42.8645L45.307 49.4632L49.2661 42.8645" stroke="#FBFBFB" stroke-width="1.61233" stroke-linecap="round" stroke-linejoin="round"/>
</svg>
