<svg width="129" height="27" viewBox="0 0 129 27" fill="none" xmlns="http://www.w3.org/2000/svg">
<path d="M63.0455 3.69481C63.3378 2.75908 64.6622 2.75908 64.9545 3.69481L66.5872 8.92064C66.7176 9.33815 67.1043 9.62243 67.5417 9.62243H72.906C73.8652 9.62243 74.2742 10.842 73.5089 11.4203L69.1024 14.7498C68.7656 15.0043 68.6249 15.4429 68.7508 15.8459L70.4178 21.1817C70.7078 22.11 69.6364 22.8641 68.8605 22.2778L64.6029 19.0607C64.2461 18.7912 63.7539 18.7912 63.3971 19.0607L59.1395 22.2778C58.3636 22.8641 57.2922 22.11 57.5822 21.1817L59.2492 15.8459C59.3751 15.4429 59.2344 15.0043 58.8976 14.7498L54.4911 11.4203C53.7258 10.842 54.1348 9.62243 55.094 9.62243H60.4583C60.8957 9.62243 61.2824 9.33814 61.4128 8.92064L63.0455 3.69481Z" fill="#FFB545"/>
<path d="M37.5489 3.5667C37.8483 2.64539 39.1517 2.64539 39.4511 3.5667L41.1942 8.93144C41.328 9.34347 41.712 9.62243 42.1452 9.62243H47.7861C48.7548 9.62243 49.1576 10.862 48.3738 11.4314L43.8103 14.747C43.4598 15.0017 43.3132 15.4531 43.447 15.8651L45.1902 21.2298C45.4895 22.1511 44.435 22.9173 43.6513 22.3479L39.0878 19.0323C38.7373 18.7776 38.2627 18.7776 37.9122 19.0323L33.3487 22.3479C32.565 22.9173 31.5105 22.1511 31.8098 21.2298L33.553 15.8651C33.6868 15.4531 33.5402 15.0017 33.1897 14.747L28.6262 11.4314C27.8425 10.862 28.2452 9.62243 29.2139 9.62243H34.8548C35.288 9.62243 35.672 9.34347 35.8058 8.93144L37.5489 3.5667Z" fill="#FFB545"/>
<path d="M89.0455 3.69481C89.3378 2.75908 90.6622 2.75908 90.9545 3.69481L92.5872 8.92064C92.7176 9.33815 93.1043 9.62243 93.5417 9.62243H98.906C99.8652 9.62243 100.274 10.842 99.5089 11.4203L95.1024 14.7498C94.7656 15.0043 94.6249 15.4429 94.7508 15.8459L96.4178 21.1817C96.7078 22.11 95.6364 22.8641 94.8605 22.2778L90.6029 19.0607C90.2461 18.7912 89.7539 18.7912 89.3971 19.0607L85.1395 22.2778C84.3636 22.8641 83.2922 22.11 83.5822 21.1817L85.2492 15.8459C85.3751 15.4429 85.2344 15.0043 84.8976 14.7498L80.4911 11.4203C79.7258 10.842 80.1348 9.62243 81.094 9.62243H86.4583C86.8957 9.62243 87.2824 9.33814 87.4128 8.92064L89.0455 3.69481Z" fill="#FFB545"/>
<path d="M12.0455 3.69481C12.3378 2.75908 13.6622 2.75908 13.9545 3.69481L15.5872 8.92064C15.7176 9.33815 16.1043 9.62243 16.5417 9.62243H21.906C22.8652 9.62243 23.2742 10.842 22.5089 11.4203L18.1024 14.7498C17.7656 15.0043 17.6249 15.4429 17.7508 15.8459L19.4178 21.1817C19.7078 22.11 18.6364 22.8641 17.8605 22.2778L13.6029 19.0607C13.2461 18.7912 12.7539 18.7912 12.3971 19.0607L8.13954 22.2778C7.36363 22.8641 6.29218 22.11 6.58218 21.1817L8.24923 15.8459C8.37512 15.4429 8.23441 15.0043 7.89759 14.7498L3.49114 11.4203C2.72585 10.842 3.1348 9.62243 4.094 9.62243H9.45833C9.89574 9.62243 10.2824 9.33814 10.4128 8.92064L12.0455 3.69481Z" fill="#FFB545"/>
<path d="M115.045 3.69481C115.338 2.75908 116.662 2.75908 116.955 3.69481L118.587 8.92064C118.718 9.33815 119.104 9.62243 119.542 9.62243H124.906C125.865 9.62243 126.274 10.842 125.509 11.4203L121.102 14.7498C120.766 15.0043 120.625 15.4429 120.751 15.8459L122.418 21.1817C122.708 22.11 121.636 22.8641 120.86 22.2778L116.603 19.0607C116.246 18.7912 115.754 18.7912 115.397 19.0607L111.14 22.2778C110.364 22.8641 109.292 22.11 109.582 21.1817L111.249 15.8459C111.375 15.4429 111.234 15.0043 110.898 14.7498L106.491 11.4203C105.726 10.842 106.135 9.62243 107.094 9.62243H112.458C112.896 9.62243 113.282 9.33814 113.413 8.92064L115.045 3.69481Z" fill="#FFB545"/>
</svg>
