<svg width="42" height="30" viewBox="0 0 42 30" fill="none" xmlns="http://www.w3.org/2000/svg">
<path d="M0.5 0.397461H41.5V29.6029H0.5V0.397461Z" fill="#E92B2B"/>
<path d="M0.5 22.3018H41.5V26.2333H0.5V22.3018Z" fill="#FBFBFB"/>
<path d="M0.5 15H41.5V18.9315H0.5V15Z" fill="#FBFBFB"/>
<path d="M0.5 7.69824H41.5V11.6297H0.5V7.69824Z" fill="#FBFBFB"/>
<path d="M0.5 0.397461H41.5V4.32897H0.5V0.397461Z" fill="#FBFBFB"/>
<path d="M0.5 0.397461H19.5959V15.0002H0.5V0.397461Z" fill="#2A2FAF"/>
<path d="M3.58905 2.08301L3.92051 2.94115H4.99316L4.12537 3.47152L4.45683 4.32958L3.58905 3.79922L2.72126 4.32958L3.05272 3.47152L2.18494 2.94115H3.25758L3.58905 2.08301Z" fill="#FBFBFB"/>
<path d="M3.58905 6.01367L3.92051 7.08635H4.99316L4.12537 7.74931L4.45683 8.82189L3.58905 8.15894L2.72126 8.82189L3.05272 7.74931L2.18494 7.08635H3.25758L3.58905 6.01367Z" fill="#FBFBFB"/>
<path d="M3.58905 10.5068L3.92051 11.5795H4.99316L4.12537 12.2425L4.45683 13.3151L3.58905 12.6521L2.72126 13.3151L3.05272 12.2425L2.18494 11.5795H3.25758L3.58905 10.5068Z" fill="#FBFBFB"/>
<path d="M8.0822 2.08301L8.41365 2.94115H9.48632L8.61849 3.47152L8.95003 4.32958L8.0822 3.79922L7.21447 4.32958L7.54591 3.47152L6.6781 2.94115H7.75076L8.0822 2.08301Z" fill="#FBFBFB"/>
<path d="M8.0822 6.01367L8.41365 7.08635H9.48632L8.61849 7.74931L8.95003 8.82189L8.0822 8.15894L7.21447 8.82189L7.54591 7.74931L6.6781 7.08635H7.75076L8.0822 6.01367Z" fill="#FBFBFB"/>
<path d="M8.0822 10.5068L8.41365 11.5795H9.48632L8.61849 12.2425L8.95003 13.3151L8.0822 12.6521L7.21447 13.3151L7.54591 12.2425L6.6781 11.5795H7.75076L8.0822 10.5068Z" fill="#FBFBFB"/>
<path d="M12.0137 2.08301L12.3452 2.94115H13.4178L12.55 3.47152L12.8816 4.32958L12.0137 3.79922L11.146 4.32958L11.4774 3.47152L10.6096 2.94115H11.6823L12.0137 2.08301Z" fill="#FBFBFB"/>
<path d="M12.0137 6.01367L12.3452 7.08635H13.4178L12.55 7.74931L12.8816 8.82189L12.0137 8.15894L11.146 8.82189L11.4774 7.74931L10.6096 7.08635H11.6823L12.0137 6.01367Z" fill="#FBFBFB"/>
<path d="M12.0137 10.5068L12.3452 11.5795H13.4178L12.55 12.2425L12.8816 13.3151L12.0137 12.6521L11.146 13.3151L11.4774 12.2425L10.6096 11.5795H11.6823L12.0137 10.5068Z" fill="#FBFBFB"/>
<path d="M16.5069 2.08301L16.8383 2.94115H17.911L17.0432 3.47152L17.3747 4.32958L16.5069 3.79922L15.6392 4.32958L15.9706 3.47152L15.1028 2.94115H16.1755L16.5069 2.08301Z" fill="#FBFBFB"/>
<path d="M16.5069 6.01367L16.8383 7.08635H17.911L17.0432 7.74931L17.3747 8.82189L16.5069 8.15894L15.6392 8.82189L15.9706 7.74931L15.1028 7.08635H16.1755L16.5069 6.01367Z" fill="#FBFBFB"/>
<path d="M16.5069 10.5068L16.8383 11.5795H17.911L17.0432 12.2425L17.3747 13.3151L16.5069 12.6521L15.6392 13.3151L15.9706 12.2425L15.1028 11.5795H16.1755L16.5069 10.5068Z" fill="#FBFBFB"/>
</svg>
